<?xml version="1.0" encoding="utf-8"?>
<!DOCTYPE svg PUBLIC "-//W3C//DTD SVG 20010904//EN" "http://www.w3.org/TR/2001/REC-SVG-20010904/DTD/svg10.dtd">
<svg version="1.0" xmlns="http://www.w3.org/2000/svg" width="602pt" height="602pt" viewBox="0 0 602 602" style="" preserveAspectRatio="xMidYMid meet">
<g fill="#212121FF" stroke="#212121FF">
<path d="M 300.000 106.304 C 300.000 107.237 299.514 108.000 298.921 108.000 C 298.241 108.000 298.073 109.203 298.469 111.250 L 299.096 114.500 297.138 112.250 C 295.017 109.814 293.493 109.233 294.515 111.250 C 294.863 111.938 294.470 111.667 293.640 110.649 C 292.371 109.091 291.904 109.011 290.695 110.140 C 289.460 111.294 289.452 112.031 290.640 115.397 C 292.515 120.711 291.852 120.844 288.928 115.739 C 286.506 111.510 286.500 111.507 286.500 114.500 C 286.500 117.444 286.476 117.458 285.215 115.250 C 282.917 111.227 282.145 112.876 284.019 117.807 L 285.845 122.613 274.030 124.790 C 251.961 128.856 230.425 137.491 213.174 149.189 C 208.953 152.051 200.073 159.817 193.440 166.447 C 172.368 187.506 159.122 210.607 152.124 238.500 C 149.417 249.290 148.916 253.258 148.296 268.799 C 147.834 280.378 148.904 296.233 150.644 303.597 C 151.190 305.904 149.739 306.671 132.750 313.055 C 124.019 316.337 121.068 318.798 127.250 317.643 C 130.283 317.076 130.370 317.134 128.559 318.518 C 127.318 319.465 127.103 320.000 127.964 320.000 C 128.979 320.000 128.904 320.449 127.655 321.829 C 125.514 324.195 125.545 326.000 127.727 326.000 C 129.953 326.000 99.917 343.996 93.778 346.341 C 90.013 347.779 88.724 348.939 87.050 352.396 C 85.912 354.748 83.860 357.272 82.490 358.005 C 81.121 358.738 80.000 359.738 80.000 360.228 C 80.000 360.718 79.550 360.840 79.000 360.500 C 77.529 359.591 77.763 360.518 80.019 364.534 C 81.130 366.511 81.778 368.550 81.460 369.065 C 81.142 369.579 81.291 370.000 81.792 370.000 C 83.131 370.000 89.418 367.768 90.000 367.086 C 90.275 366.764 91.063 366.455 91.750 366.400 C 95.560 366.095 96.069 365.921 95.558 365.093 C 95.249 364.595 95.830 364.404 96.847 364.670 C 98.342 365.061 124.571 355.510 135.000 350.777 C 136.375 350.153 137.838 349.554 138.250 349.446 C 138.663 349.338 139.113 349.159 139.250 349.048 C 139.388 348.938 140.175 348.704 141.000 348.529 C 147.976 347.051 159.713 343.618 163.668 341.900 C 166.326 340.746 174.572 337.555 181.993 334.809 C 189.415 332.064 195.940 329.534 196.493 329.188 C 197.047 328.841 198.400 328.420 199.500 328.252 C 201.221 327.989 201.151 328.192 199.000 329.705 C 197.625 330.672 196.275 331.365 196.000 331.244 C 195.010 330.808 192.000 332.155 192.000 333.033 C 192.000 333.527 193.575 336.797 195.500 340.299 C 199.530 347.630 199.605 347.939 197.250 347.488 C 195.574 347.167 194.699 346.637 196.250 346.882 C 197.587 347.093 197.037 345.608 193.518 339.500 C 190.032 333.450 188.941 333.230 191.250 339.041 L 192.500 342.187 190.816 339.271 C 189.890 337.667 188.427 335.770 187.566 335.055 C 184.449 332.468 185.966 336.141 191.559 344.722 C 195.058 350.089 196.888 353.849 196.497 354.867 C 196.055 356.021 194.044 353.626 189.479 346.506 C 185.960 341.018 182.654 336.385 182.132 336.211 C 179.170 335.223 180.711 339.126 186.959 348.438 C 190.831 354.211 194.000 359.283 194.000 359.710 C 194.000 360.137 190.600 355.399 186.445 349.181 C 181.741 342.141 178.343 337.993 177.440 338.187 C 176.423 338.407 178.386 342.087 184.008 350.500 C 188.418 357.100 191.908 363.111 191.763 363.859 C 191.618 364.606 188.270 360.106 184.322 353.859 C 174.184 337.815 174.922 338.623 171.735 340.075 L 169.052 341.297 172.465 347.354 C 174.342 350.685 176.918 353.841 178.189 354.366 C 180.247 355.216 180.284 355.331 178.531 355.410 C 176.783 355.490 176.867 355.740 179.281 357.644 C 180.777 358.823 182.000 360.197 182.000 360.698 C 182.000 361.198 183.575 363.134 185.500 365.000 C 187.425 366.866 189.000 369.231 189.000 370.255 C 189.000 373.138 187.653 371.722 180.413 361.230 C 176.720 355.879 173.428 351.275 173.098 351.000 C 172.767 350.725 171.910 349.375 171.193 348.000 C 168.730 343.279 167.144 341.731 165.442 342.384 C 164.213 342.856 163.960 343.705 164.459 345.692 C 165.331 349.166 169.928 357.000 171.095 357.000 C 171.593 357.000 172.000 357.591 172.000 358.313 C 172.000 359.034 175.150 363.044 179.000 367.222 C 182.850 371.400 186.000 375.080 186.000 375.399 C 186.000 375.719 182.363 384.197 177.919 394.240 C 173.474 404.283 169.762 412.950 169.669 413.500 C 169.576 414.050 169.261 414.725 168.970 415.000 C 168.678 415.275 165.587 422.025 162.099 430.000 C 158.612 437.975 151.822 452.375 147.010 462.000 C 137.306 481.408 136.173 484.193 138.151 483.775 C 138.867 483.624 139.612 484.547 139.806 485.826 C 140.028 487.287 140.660 487.961 141.506 487.636 C 143.098 487.025 145.315 489.329 144.241 490.477 C 143.834 490.914 144.468 490.768 145.650 490.154 C 147.360 489.265 147.916 489.340 148.369 490.518 C 149.250 492.816 150.706 492.275 151.784 489.250 C 152.324 487.738 153.605 485.521 154.632 484.324 C 155.660 483.127 158.075 480.052 160.000 477.492 C 161.925 474.932 164.399 471.862 165.499 470.670 C 167.441 468.564 167.497 468.559 167.500 470.501 C 167.502 471.967 168.002 471.567 169.376 469.000 C 172.278 463.580 173.175 462.665 174.109 464.176 C 174.711 465.150 175.434 464.971 177.197 463.412 C 178.464 462.292 180.524 461.455 181.775 461.552 C 183.026 461.650 184.368 461.228 184.759 460.615 C 185.180 459.952 185.474 460.277 185.484 461.415 C 185.497 462.926 186.050 462.609 188.105 459.915 C 191.828 455.035 200.060 439.393 199.303 438.637 C 198.953 438.286 199.218 438.000 199.892 438.000 C 200.566 438.000 200.886 437.624 200.602 437.165 C 200.318 436.706 202.654 431.413 205.793 425.403 C 208.932 419.392 212.850 411.894 214.500 408.740 C 216.150 405.585 217.847 403.004 218.272 403.002 C 218.697 403.001 222.631 404.803 227.014 407.007 C 240.911 413.994 259.712 420.607 271.000 422.477 C 272.925 422.796 277.413 423.545 280.974 424.142 C 290.601 425.754 318.478 424.591 329.130 422.132 C 345.973 418.244 363.714 411.042 380.088 401.447 C 384.261 399.001 387.931 397.000 388.244 397.000 C 388.556 397.000 389.509 399.047 390.362 401.548 C 391.710 405.506 391.723 406.169 390.456 406.655 C 389.655 406.963 389.000 408.205 389.000 409.416 C 389.000 412.497 391.378 415.453 393.273 414.726 C 394.178 414.378 395.076 414.757 395.410 415.627 C 395.727 416.452 396.388 416.878 396.879 416.575 C 398.141 415.795 399.140 420.260 397.967 421.433 C 395.518 423.882 397.747 428.733 402.008 430.224 C 402.837 430.514 404.305 432.948 405.271 435.632 C 406.236 438.317 408.007 442.085 409.205 444.007 C 410.404 445.928 411.271 448.282 411.132 449.237 C 410.992 450.193 411.981 452.443 413.327 454.237 C 414.674 456.032 417.012 459.975 418.523 463.000 C 420.033 466.025 422.559 470.381 424.135 472.680 C 425.711 474.979 427.000 477.118 427.000 477.433 C 427.000 477.748 428.303 480.100 429.897 482.660 C 432.139 486.263 432.875 486.886 433.158 485.420 C 433.397 484.178 435.882 487.821 440.384 496.013 C 448.447 510.686 455.500 520.531 455.500 517.112 C 455.500 515.219 455.773 515.371 457.472 518.207 C 458.999 520.756 459.524 521.104 459.796 519.750 C 459.989 518.788 460.998 518.000 462.039 518.000 C 464.179 518.000 469.992 512.741 470.015 510.784 C 470.026 509.883 470.320 509.948 471.000 511.000 C 471.777 512.202 471.972 512.032 471.985 510.144 C 472.016 505.357 468.771 495.619 461.533 478.781 C 457.448 469.277 452.996 457.225 451.640 452.000 C 450.284 446.775 447.763 438.675 446.039 434.000 C 444.314 429.325 442.506 423.467 442.021 420.982 C 441.537 418.497 438.223 410.172 434.657 402.482 C 431.091 394.792 426.350 383.207 424.121 376.738 C 419.353 362.900 419.597 363.881 420.730 363.112 C 421.952 362.282 431.077 346.906 434.743 339.500 C 438.281 332.352 445.682 312.873 447.607 305.644 C 449.382 298.976 449.545 272.348 447.813 271.771 C 447.160 271.553 450.873 270.264 456.063 268.905 C 461.535 267.473 465.405 265.954 465.275 265.291 C 465.151 264.663 466.411 263.849 468.076 263.483 C 469.741 263.118 476.367 260.880 482.801 258.510 C 489.236 256.141 498.199 253.455 502.721 252.541 C 507.242 251.628 516.242 249.533 522.721 247.887 C 529.199 246.240 535.400 244.750 536.500 244.574 C 539.887 244.034 540.590 243.639 538.500 243.451 C 537.400 243.352 535.643 242.910 534.595 242.469 C 533.438 241.982 528.921 242.518 523.085 243.834 C 517.802 245.025 513.034 245.960 512.490 245.911 C 510.843 245.762 521.939 242.682 528.797 241.384 C 530.610 241.041 531.852 240.519 531.557 240.224 C 531.262 239.929 532.789 239.556 534.950 239.395 C 537.111 239.234 540.651 238.199 542.816 237.094 C 544.981 235.989 546.964 235.297 547.223 235.556 C 547.481 235.815 549.386 235.319 551.455 234.455 C 553.523 233.590 554.981 232.648 554.694 232.360 C 554.406 232.073 553.345 232.263 552.336 232.783 C 551.326 233.302 547.125 233.969 543.000 234.265 C 538.875 234.561 536.175 234.586 537.000 234.322 C 537.825 234.058 539.175 233.600 540.000 233.305 C 540.825 233.010 543.038 232.610 544.917 232.417 C 546.797 232.224 548.803 231.597 549.377 231.023 C 550.644 229.756 543.358 230.538 534.500 232.621 C 531.200 233.397 527.150 234.237 525.500 234.488 C 523.850 234.739 520.375 235.449 517.779 236.065 C 515.182 236.682 512.521 237.007 511.865 236.788 C 511.209 236.570 515.358 235.366 521.086 234.114 C 531.481 231.842 536.463 230.351 532.592 230.672 C 524.318 231.358 515.611 232.435 504.500 234.145 C 497.350 235.245 488.575 236.319 485.000 236.531 L 478.500 236.916 483.250 235.428 C 488.248 233.862 489.558 232.286 485.750 232.421 C 484.382 232.469 484.774 232.175 486.750 231.671 C 490.719 230.658 491.186 228.507 487.250 229.370 C 485.738 229.701 479.717 230.426 473.870 230.980 C 468.024 231.534 459.699 232.665 455.370 233.494 C 451.042 234.322 446.816 235.000 445.980 235.000 C 444.961 235.000 443.692 232.529 442.137 227.520 C 440.860 223.406 437.204 214.743 434.012 208.270 C 417.917 175.628 393.560 152.583 356.500 134.934 C 349.900 131.791 341.657 128.198 338.181 126.951 C 331.403 124.517 331.719 125.144 333.666 118.000 C 334.278 115.754 334.177 115.640 332.673 116.872 C 331.427 117.895 331.000 117.931 331.000 117.015 C 331.000 116.333 330.332 116.042 329.500 116.362 C 328.395 116.786 327.996 116.221 327.985 114.219 C 327.973 112.096 327.757 111.829 327.000 113.000 C 326.467 113.825 326.024 114.029 326.015 113.454 C 326.007 112.878 324.763 112.443 323.250 112.488 C 321.651 112.535 319.618 111.656 318.393 110.387 C 317.092 109.040 315.797 108.507 315.009 108.994 C 314.307 109.428 312.419 109.407 310.814 108.947 C 308.580 108.306 307.759 108.464 307.315 109.622 C 306.856 110.817 306.026 110.448 303.367 107.871 C 300.817 105.400 300.000 105.019 300.000 106.304 M 343.742 298.785 C 344.627 300.828 345.502 303.335 345.686 304.355 C 346.919 311.212 360.536 344.134 367.121 356.182 L 370.773 362.864 368.637 364.736 C 360.010 372.295 342.819 380.820 328.337 384.721 C 319.478 387.107 316.710 387.377 300.500 387.435 C 280.704 387.506 273.274 386.330 258.945 380.859 C 249.935 377.418 234.500 368.779 234.500 367.176 C 234.500 365.441 242.297 356.000 243.730 356.000 C 244.429 356.000 244.887 356.546 244.750 357.214 C 244.613 357.882 245.370 356.869 246.432 354.964 C 247.818 352.480 248.478 348.954 248.764 342.500 C 249.431 327.489 253.685 317.827 260.776 315.219 C 264.290 313.927 295.276 305.788 309.500 302.421 C 315.550 300.989 321.175 299.565 322.000 299.255 C 322.825 298.946 323.950 298.629 324.500 298.550 C 330.254 297.722 335.098 296.651 335.420 296.135 C 335.638 295.786 337.237 295.403 338.974 295.285 C 341.743 295.097 342.330 295.527 343.742 298.785 M 264.285 195.000 C 259.057 209.025 254.343 221.324 253.811 222.331 C 252.682 224.467 247.197 227.013 245.297 226.284 C 242.879 225.356 240.741 232.961 240.021 245.050 C 239.414 255.217 238.962 257.327 236.241 262.683 C 230.338 274.299 227.236 277.619 220.000 280.071 C 216.425 281.281 207.980 284.461 201.234 287.136 C 194.487 289.811 188.525 292.000 187.984 292.000 C 185.452 292.000 187.937 259.289 191.507 245.618 C 193.696 237.237 201.309 218.135 206.255 208.616 C 215.091 191.608 239.854 172.483 262.000 165.563 C 265.025 164.618 268.175 163.596 269.000 163.291 C 269.825 162.986 271.817 162.566 273.428 162.357 C 275.038 162.149 276.613 161.772 276.928 161.520 C 277.242 161.268 276.666 162.961 275.646 165.281 C 274.626 167.601 269.514 180.975 264.285 195.000 M 356.500 177.857 C 370.625 189.652 381.288 200.387 388.048 209.614 C 390.420 212.851 392.768 215.775 393.265 216.112 C 393.763 216.448 394.116 217.020 394.048 217.383 C 393.981 217.745 395.486 220.845 397.393 224.271 C 402.512 233.467 405.290 240.974 403.748 241.447 C 401.997 241.984 394.802 243.141 393.000 243.176 C 392.175 243.192 387.230 243.816 382.012 244.564 C 376.793 245.312 372.266 245.603 371.952 245.212 C 371.094 244.145 361.287 222.358 357.036 212.074 C 354.768 206.589 354.456 204.541 354.162 193.250 C 354.049 188.872 353.611 187.000 352.700 187.000 C 351.985 187.000 350.838 186.438 350.150 185.750 C 349.404 185.004 349.323 184.500 349.950 184.500 C 351.846 184.500 351.084 183.012 347.634 179.984 C 344.781 177.479 342.000 171.344 342.000 167.557 C 342.000 166.058 344.496 167.831 356.500 177.857 M 314.975 220.382 C 315.703 223.623 315.568 224.820 314.321 226.198 C 312.329 228.399 312.297 232.726 314.258 234.687 C 315.473 235.901 316.196 235.966 317.969 235.017 C 319.180 234.368 320.316 233.987 320.493 234.169 C 321.167 234.863 328.115 252.215 327.815 252.455 C 327.642 252.594 322.775 253.926 317.000 255.416 C 311.225 256.906 301.478 259.447 295.340 261.063 C 289.202 262.678 283.733 264.000 283.186 264.000 C 282.405 264.000 298.598 224.582 306.559 207.107 L 308.104 203.713 311.081 210.007 C 312.718 213.469 314.470 218.138 314.975 220.382 M 284.000 149.427 C 284.000 151.114 279.343 155.000 277.323 155.000 C 274.832 155.000 250.667 163.162 245.500 165.748 C 233.841 171.584 220.141 180.834 214.000 187.017 C 207.170 193.893 194.617 211.283 195.700 212.367 C 196.048 212.715 195.921 213.002 195.417 213.003 C 194.913 213.005 193.199 215.593 191.609 218.753 C 190.019 221.914 188.289 225.350 187.764 226.389 C 186.698 228.499 183.814 237.680 183.488 240.000 C 183.372 240.825 183.006 242.175 182.674 243.000 C 182.341 243.825 181.198 249.000 180.134 254.500 C 177.937 265.846 177.440 280.869 178.992 288.998 C 179.909 293.796 179.824 294.655 178.330 295.748 C 177.388 296.437 176.197 297.000 175.684 297.000 C 173.934 297.000 175.663 261.419 177.909 251.212 C 181.669 234.120 190.111 211.520 197.224 199.500 C 210.790 176.576 245.912 154.131 276.028 149.141 C 283.845 147.845 284.000 147.851 284.000 149.427 M 246.006 382.208 C 260.793 389.558 274.241 393.252 291.000 394.566 C 300.941 395.345 317.708 393.747 328.759 390.966 C 336.977 388.897 349.091 384.223 350.112 382.726 C 350.448 382.233 351.023 381.900 351.389 381.987 C 351.756 382.073 354.051 381.382 356.490 380.451 C 358.929 379.519 361.694 379.052 362.633 379.413 C 364.081 379.968 363.820 380.523 360.921 383.044 C 354.844 388.330 349.737 390.790 337.500 394.326 C 311.107 401.954 285.688 402.732 266.588 396.497 C 258.673 393.913 234.581 383.390 230.994 380.950 C 229.011 379.600 228.873 379.106 229.926 377.139 C 230.591 375.896 231.445 375.018 231.823 375.189 C 232.202 375.360 238.584 378.518 246.006 382.208 M 413.352 279.474 C 413.663 280.284 413.050 284.447 411.989 288.724 C 410.929 293.001 409.870 297.625 409.636 299.000 C 409.065 302.357 408.247 304.738 406.027 309.500 C 404.713 312.318 404.125 312.909 404.037 311.500 C 403.968 310.400 403.316 307.830 402.588 305.790 C 401.635 303.121 401.577 301.960 402.381 301.656 C 402.997 301.423 402.600 300.923 401.500 300.543 C 393.598 297.819 391.201 295.429 388.979 288.058 C 388.555 286.651 387.910 284.768 387.545 283.873 C 386.832 282.128 389.222 281.133 396.000 280.353 C 397.925 280.132 401.075 279.558 403.000 279.078 C 408.599 277.681 412.724 277.839 413.352 279.474 M 381.750 394.250 C 381.392 396.042 374.403 400.934 366.394 405.000 C 362.602 406.925 359.275 408.725 359.000 409.000 C 358.725 409.275 358.050 409.601 357.500 409.725 C 356.950 409.848 352.614 411.315 347.865 412.984 C 330.632 419.041 321.635 420.416 299.000 420.455 C 276.091 420.494 269.428 419.513 251.037 413.394 C 241.018 410.061 228.256 403.964 223.005 400.004 C 217.865 396.127 222.019 397.224 232.568 402.530 C 252.445 412.528 270.745 417.254 294.795 418.600 C 305.176 419.181 309.146 418.936 320.295 417.026 C 327.558 415.782 336.200 413.890 339.500 412.821 C 342.800 411.753 347.750 410.167 350.500 409.295 C 353.250 408.424 356.228 406.876 357.117 405.856 C 358.007 404.835 359.712 404.000 360.907 404.000 C 363.596 404.000 368.941 401.282 375.497 396.582 C 380.839 392.752 382.147 392.264 381.750 394.250 M 374.194 393.253 C 361.974 401.340 337.841 410.565 322.616 412.971 C 319.252 413.502 308.175 413.997 298.000 414.070 C 281.214 414.192 278.481 413.961 268.500 411.577 C 254.789 408.303 249.192 406.529 241.226 402.935 C 237.776 401.378 234.676 400.119 234.338 400.137 C 234.000 400.156 233.448 399.773 233.112 399.287 C 232.775 398.802 230.363 397.169 227.750 395.660 C 225.138 394.151 223.000 392.217 223.000 391.363 C 223.000 390.133 223.989 390.392 227.750 392.606 C 236.344 397.664 240.476 399.681 249.543 403.242 C 289.102 418.779 335.640 414.219 372.500 391.193 C 378.602 387.381 380.176 389.294 374.194 393.253 M 231.750 383.989 C 233.538 385.079 235.007 385.640 235.015 385.235 C 235.024 384.831 235.361 385.004 235.765 385.621 C 238.025 389.069 260.018 397.536 274.256 400.438 C 298.508 405.383 326.869 402.351 349.500 392.393 C 353.900 390.457 358.068 388.626 358.761 388.325 C 359.606 387.958 359.812 388.325 359.387 389.435 C 358.619 391.434 352.144 394.797 342.000 398.463 C 317.001 407.498 283.850 407.543 256.736 398.578 C 245.004 394.699 227.000 385.187 227.000 382.867 C 227.000 381.539 228.196 381.822 231.750 383.989 M 288.595 128.155 C 289.028 128.855 288.871 129.038 288.195 128.621 C 287.583 128.242 286.276 128.361 285.291 128.884 C 284.306 129.408 278.325 130.820 272.000 132.021 C 265.675 133.223 259.825 134.414 259.000 134.667 C 258.175 134.921 257.383 135.091 257.240 135.044 C 257.096 134.998 255.592 135.677 253.897 136.553 C 252.201 137.430 250.554 137.888 250.237 137.570 C 249.919 137.253 248.724 137.584 247.580 138.305 C 246.436 139.027 243.363 140.416 240.750 141.392 C 238.138 142.367 236.000 143.578 236.000 144.083 C 236.000 144.587 235.170 145.000 234.155 145.000 C 233.140 145.000 229.525 146.800 226.121 149.000 C 222.717 151.200 219.681 153.000 219.373 153.000 C 219.065 153.000 214.640 156.137 209.539 159.970 C 200.779 166.555 183.910 184.188 183.177 187.528 C 182.999 188.337 182.467 189.000 181.994 189.000 C 181.521 189.000 180.861 189.863 180.526 190.918 C 179.606 193.817 175.506 198.725 175.467 196.976 C 175.448 196.164 175.680 195.275 175.982 195.000 C 176.283 194.725 178.881 190.900 181.754 186.500 C 188.704 175.856 202.363 162.365 217.459 151.234 C 230.093 141.918 251.543 132.998 269.500 129.594 C 283.761 126.890 287.634 126.598 288.595 128.155 M 286.468 134.948 C 286.825 135.526 286.754 136.002 286.309 136.004 C 285.864 136.006 281.424 136.669 276.442 137.477 C 265.532 139.247 256.377 141.950 245.000 146.761 C 236.856 150.205 218.138 160.683 215.000 163.555 C 214.175 164.310 211.934 166.182 210.020 167.714 C 203.415 173.001 192.873 184.526 186.696 193.213 C 179.917 202.745 179.147 202.859 184.764 193.500 C 190.677 183.648 196.330 176.940 205.665 168.702 C 220.742 155.395 235.856 146.485 253.500 140.503 C 257.900 139.011 262.175 137.552 263.000 137.262 C 263.825 136.971 265.955 136.556 267.734 136.340 C 269.513 136.124 271.852 135.620 272.933 135.221 C 276.206 134.010 285.769 133.817 286.468 134.948 M 286.000 143.902 C 286.000 144.398 280.713 146.029 274.250 147.525 C 267.788 149.021 259.234 151.537 255.242 153.115 C 239.378 159.389 221.812 169.408 214.367 176.431 C 212.286 178.394 210.279 180.000 209.908 180.000 C 208.791 180.000 194.106 198.138 192.760 201.181 C 192.073 202.733 191.191 203.890 190.801 203.752 C 189.954 203.451 197.863 190.168 202.263 184.500 C 206.319 179.275 222.859 166.095 233.037 159.978 C 237.460 157.320 244.323 153.949 248.289 152.487 C 252.255 151.024 256.175 149.570 257.000 149.255 C 257.825 148.940 258.725 148.710 259.000 148.743 C 259.275 148.776 264.900 147.531 271.500 145.976 C 285.067 142.780 286.000 142.647 286.000 143.902 M 370.572 168.778 C 376.974 173.194 387.957 181.792 390.519 184.393 C 391.119 185.002 394.209 188.875 397.387 193.000 C 403.419 200.831 421.532 235.913 420.748 238.246 C 420.516 238.936 417.484 233.538 414.010 226.250 C 410.536 218.963 407.286 213.000 406.788 213.000 C 406.290 213.000 406.099 212.648 406.365 212.219 C 406.998 211.195 397.610 197.377 392.500 191.812 C 390.300 189.416 384.450 183.920 379.500 179.600 C 360.122 162.687 357.986 160.098 370.572 168.778 M 425.103 278.855 C 424.632 279.760 423.929 283.558 423.539 287.296 C 423.150 291.035 421.705 298.235 420.328 303.296 C 418.952 308.358 417.727 312.950 417.606 313.500 C 417.160 315.539 410.960 327.236 409.014 329.709 C 405.938 333.620 406.478 330.301 410.383 321.298 C 414.762 311.202 415.498 308.698 417.961 295.500 C 419.090 289.450 420.272 283.263 420.587 281.750 C 421.046 279.545 420.796 278.999 419.329 278.993 C 417.938 278.988 418.208 278.520 420.454 277.040 C 423.815 274.824 426.628 275.922 425.103 278.855 M 347.194 155.762 C 359.281 162.511 393.071 193.050 397.321 201.066 L 399.142 204.500 396.864 201.500 C 389.619 191.956 366.449 171.000 363.142 171.000 C 362.606 171.000 362.017 170.584 361.833 170.076 C 361.650 169.568 356.922 166.881 351.327 164.105 C 341.790 159.373 338.000 156.293 338.000 153.277 C 338.000 151.224 340.070 151.783 347.194 155.762 M 345.068 134.599 C 353.117 136.968 366.346 144.132 376.246 151.482 C 381.056 155.053 385.106 158.355 385.246 158.818 C 385.386 159.281 379.685 155.876 372.579 151.252 C 365.472 146.627 357.372 141.960 354.579 140.880 C 347.389 138.101 337.298 133.188 338.568 133.086 C 339.156 133.039 342.081 133.719 345.068 134.599 M 301.474 212.582 C 299.536 217.487 297.827 222.175 297.676 223.000 C 297.526 223.825 296.906 225.400 296.300 226.500 C 295.693 227.600 295.194 228.725 295.191 229.000 C 295.180 229.869 292.818 235.191 288.090 245.000 C 282.027 257.578 282.736 254.810 290.248 236.567 C 293.631 228.353 296.336 220.806 296.260 219.795 C 296.183 218.784 296.470 218.172 296.896 218.436 C 297.322 218.699 299.155 215.319 300.970 210.925 C 302.784 206.530 304.432 203.099 304.633 203.299 C 304.833 203.500 303.411 207.677 301.474 212.582 M 387.308 170.929 C 399.182 180.786 410.698 194.982 418.597 209.500 C 420.742 213.442 421.662 215.900 420.703 215.128 C 419.766 214.373 419.000 213.193 419.000 212.506 C 419.000 210.459 409.245 196.089 401.979 187.433 C 395.263 179.431 381.099 166.000 379.377 166.000 C 378.884 166.000 377.851 164.988 377.080 163.750 C 375.749 161.613 375.775 161.574 377.589 162.974 C 378.640 163.784 383.014 167.364 387.308 170.929 M 351.590 143.156 C 356.772 145.071 361.744 147.826 365.422 150.822 L 371.163 155.500 365.831 153.152 C 362.899 151.861 360.325 150.887 360.112 150.988 C 359.898 151.089 359.448 150.739 359.112 150.210 C 358.775 149.682 354.000 146.933 348.500 144.101 C 337.825 138.604 338.613 138.363 351.590 143.156 M 374.341 181.576 C 384.978 190.802 392.222 198.789 398.112 207.788 C 400.736 211.797 402.658 215.077 402.383 215.077 C 402.108 215.077 399.714 211.797 397.063 207.788 C 389.867 196.905 383.323 190.195 370.010 180.049 C 363.405 175.014 358.000 170.680 358.000 170.418 C 358.000 169.088 367.131 175.323 374.341 181.576 M 349.500 152.172 C 352.800 153.781 357.657 156.763 360.293 158.799 C 364.752 162.242 364.138 162.047 351.479 156.000 C 343.995 152.425 337.619 149.114 337.311 148.643 C 336.321 147.132 343.310 149.155 349.500 152.172 M 181.908 229.000 C 180.043 233.008 176.241 247.618 175.371 254.115 C 173.402 268.824 173.133 269.732 173.479 260.500 C 173.699 254.638 174.727 248.362 176.429 242.500 C 179.829 230.791 183.495 220.963 183.518 223.500 C 183.528 224.600 182.803 227.075 181.908 229.000 M 314.457 292.339 C 305.131 294.451 296.375 296.374 295.000 296.612 L 292.500 297.046 295.000 295.955 C 296.375 295.354 302.854 293.553 309.398 291.950 C 315.942 290.348 321.417 288.917 321.566 288.769 C 321.714 288.621 323.991 288.500 326.625 288.500 C 330.230 288.500 327.223 289.449 314.457 292.339 M 350.719 399.240 C 337.584 404.411 323.895 407.948 315.000 408.470 L 307.500 408.909 314.796 407.910 C 325.480 406.448 339.624 402.654 349.147 398.696 C 353.741 396.787 358.112 395.286 358.860 395.362 C 359.608 395.438 355.944 397.183 350.719 399.240 M 421.500 260.044 C 411.143 263.460 399.918 266.251 399.246 265.579 C 398.992 265.326 401.196 264.434 404.143 263.598 C 407.089 262.761 413.325 260.981 418.000 259.642 C 429.953 256.218 432.288 256.487 421.500 260.044 M 420.417 316.750 C 420.829 317.163 420.606 317.500 419.920 317.500 C 419.235 317.500 416.835 321.653 414.587 326.729 C 410.683 335.546 409.000 337.862 409.000 334.420 C 409.000 332.616 418.041 316.000 419.022 316.000 C 419.377 316.000 420.004 316.338 420.417 316.750 M 337.741 227.938 C 341.756 236.430 344.919 243.719 344.771 244.137 C 344.492 244.920 328.545 211.075 327.508 207.500 C 326.772 204.962 328.671 208.754 337.741 227.938 M 398.399 187.368 C 400.235 189.641 402.989 193.525 404.518 196.000 C 406.048 198.475 407.794 200.831 408.399 201.235 C 409.187 201.761 409.174 201.974 408.354 201.985 C 407.724 201.993 405.719 199.638 403.898 196.750 C 402.078 193.863 396.968 187.698 392.544 183.051 C 385.561 175.716 385.196 175.171 389.780 178.919 C 392.684 181.293 396.562 185.095 398.399 187.368 M 207.607 329.250 C 207.488 329.938 206.586 332.022 205.602 333.882 L 203.813 337.263 201.913 334.382 C 199.382 330.542 199.466 330.211 203.250 329.119 C 207.715 327.830 207.852 327.834 207.607 329.250 M 420.905 203.154 C 424.168 208.403 429.293 220.040 428.633 220.700 C 428.433 220.900 427.704 219.700 427.013 218.032 C 426.323 216.364 425.460 215.000 425.097 215.000 C 424.733 215.000 424.337 213.796 424.215 212.325 C 424.093 210.854 423.372 208.941 422.613 208.075 C 421.112 206.361 416.727 198.000 417.330 198.000 C 417.534 198.000 419.143 200.319 420.905 203.154 M 398.972 220.196 C 402.287 225.805 404.999 230.867 404.997 231.446 C 404.995 232.492 401.404 226.784 395.125 215.750 C 393.326 212.588 392.098 210.000 392.398 210.000 C 392.698 210.000 395.656 214.588 398.972 220.196 M 417.750 341.184 C 417.888 341.633 417.622 342.000 417.161 342.000 C 416.699 342.000 415.782 343.183 415.123 344.629 C 414.464 346.075 413.680 347.014 413.381 346.715 C 413.082 346.416 415.237 341.853 418.169 336.576 C 422.580 328.637 422.982 328.137 420.500 333.675 C 418.850 337.356 417.613 340.735 417.750 341.184 M 228.000 159.767 C 222.775 163.008 218.950 165.077 219.500 164.366 C 220.644 162.885 237.185 152.773 237.375 153.437 C 237.444 153.678 233.225 156.526 228.000 159.767 M 368.522 351.811 C 368.063 352.270 358.974 333.574 359.055 332.339 C 359.086 331.877 361.316 335.982 364.012 341.460 C 366.707 346.939 368.737 351.597 368.522 351.811 M 179.992 316.985 C 179.171 317.444 178.050 317.909 177.500 318.018 C 174.581 318.597 168.396 321.529 167.712 322.658 C 167.279 323.373 166.933 323.630 166.943 323.229 C 166.953 322.828 165.957 322.500 164.731 322.500 C 163.504 322.500 166.100 321.199 170.500 319.609 C 174.900 318.019 178.920 316.339 179.433 315.876 C 179.947 315.412 180.618 315.285 180.925 315.592 C 181.232 315.899 180.812 316.526 179.992 316.985 M 218.448 332.619 C 216.219 336.851 215.077 338.345 215.481 336.500 C 216.207 333.179 220.918 324.584 221.624 325.291 C 221.870 325.537 220.441 328.835 218.448 332.619 M 171.101 298.299 C 170.300 299.100 170.035 297.370 170.127 291.950 L 170.255 284.500 171.228 290.849 C 171.915 295.335 171.878 297.522 171.101 298.299 M 428.632 284.000 L 427.500 291.500 427.500 282.790 C 427.500 276.258 427.783 274.382 428.632 275.290 C 429.476 276.191 429.476 278.416 428.632 284.000 M 414.980 232.960 C 417.490 237.880 417.735 240.855 415.476 238.980 C 414.638 238.284 414.149 237.517 414.391 237.276 C 414.632 237.034 414.193 235.313 413.415 233.451 C 411.898 229.819 411.725 229.000 412.480 229.000 C 412.743 229.000 413.868 230.782 414.980 232.960 M 450.000 505.778 C 453.624 514.073 453.069 514.199 448.683 506.079 C 446.583 502.191 445.458 499.246 446.183 499.534 C 446.907 499.822 448.625 502.632 450.000 505.778 M 162.926 299.750 C 162.967 300.988 162.550 302.000 162.000 302.000 C 161.420 302.000 161.053 299.167 161.125 295.250 C 161.248 288.645 161.267 288.596 162.051 293.000 C 162.491 295.475 162.885 298.513 162.926 299.750 M 194.219 188.257 C 195.164 186.834 198.539 182.821 201.719 179.341 C 205.365 175.350 204.730 176.306 200.000 181.929 C 195.875 186.833 193.273 189.680 194.219 188.257 M 336.542 132.932 C 336.226 133.444 336.974 134.569 338.206 135.432 C 340.728 137.198 339.423 137.492 335.565 136.025 C 332.485 134.854 332.127 132.000 335.059 132.000 C 336.191 132.000 336.859 132.419 336.542 132.932 M 280.816 140.517 C 280.532 140.801 278.320 141.198 275.900 141.398 C 273.480 141.599 270.150 142.104 268.500 142.522 C 266.850 142.940 265.855 142.901 266.288 142.436 C 266.721 141.971 268.288 141.429 269.770 141.230 C 271.252 141.032 272.660 140.674 272.899 140.435 C 273.138 140.196 275.133 140.000 277.333 140.000 C 279.533 140.000 281.101 140.233 280.816 140.517 M 458.654 478.679 C 458.193 479.140 451.993 465.053 452.026 463.621 C 452.041 463.004 453.616 466.063 455.526 470.417 C 457.437 474.771 458.844 478.489 458.654 478.679 M 333.500 281.517 C 324.676 283.187 321.932 283.165 328.500 281.477 C 331.250 280.770 335.075 280.192 337.000 280.192 C 339.239 280.192 337.978 280.669 333.500 281.517 M 437.834 281.750 L 437.669 289.500 437.084 281.748 C 436.763 277.485 436.838 273.997 437.250 273.998 C 437.663 273.999 437.925 277.488 437.834 281.750 M 188.870 246.580 C 188.487 246.817 187.865 248.838 187.488 251.073 C 187.110 253.307 186.567 254.901 186.281 254.615 C 185.995 254.329 186.601 250.811 187.626 246.797 C 188.985 241.481 189.501 240.403 189.529 242.825 C 189.549 244.654 189.253 246.344 188.870 246.580 M 330.328 251.500 C 330.416 252.050 328.804 248.988 326.744 244.695 C 324.685 240.402 323.037 236.577 323.082 236.195 C 323.177 235.396 330.084 249.987 330.328 251.500 M 336.000 128.000 C 339.965 130.171 339.237 130.471 333.724 128.940 C 331.648 128.364 330.212 127.466 330.533 126.946 C 331.328 125.661 331.944 125.780 336.000 128.000 M 424.500 338.724 C 423.400 341.048 422.153 342.960 421.730 342.974 C 421.306 342.988 421.878 341.200 423.000 339.000 C 424.122 336.800 424.694 334.993 424.270 334.985 C 423.847 334.976 424.175 334.543 425.000 334.021 C 426.989 332.764 426.893 333.670 424.500 338.724 M 435.500 259.445 C 428.899 261.504 425.455 262.212 426.329 261.331 C 427.200 260.453 435.454 258.251 438.000 258.218 C 438.825 258.207 437.700 258.759 435.500 259.445 M 411.227 234.921 C 411.377 236.194 410.379 234.370 409.010 230.868 C 405.658 222.295 405.538 221.552 408.478 227.553 C 409.840 230.333 411.077 233.648 411.227 234.921 M 156.900 302.250 C 156.955 303.213 156.550 304.000 156.000 304.000 C 155.450 304.000 155.045 302.088 155.100 299.750 C 155.184 296.140 155.320 295.876 156.000 298.000 C 156.440 299.375 156.845 301.288 156.900 302.250 M 443.061 289.000 C 442.484 289.000 442.201 287.988 442.432 286.750 C 442.663 285.513 442.966 283.375 443.106 282.000 C 443.246 280.625 443.529 281.638 443.735 284.250 C 443.962 287.135 443.698 289.000 443.061 289.000 M 312.113 203.500 C 314.085 209.323 313.800 210.226 311.640 205.000 C 308.783 198.087 308.573 197.371 309.732 198.500 C 310.297 199.050 311.368 201.300 312.113 203.500 M 363.131 373.610 C 359.803 375.222 359.985 374.986 364.365 372.000 C 367.189 370.075 368.945 369.224 368.266 370.110 C 367.588 370.995 365.277 372.570 363.131 373.610 M 418.825 359.333 C 418.453 359.425 419.578 357.150 421.325 354.279 L 424.500 349.058 422.000 354.112 C 420.625 356.892 419.196 359.241 418.825 359.333 M 412.264 340.598 C 412.045 340.378 413.133 337.864 414.683 335.010 L 417.500 329.822 415.081 335.409 C 413.751 338.482 412.484 340.817 412.264 340.598 M 335.389 245.000 C 335.742 246.375 334.899 245.080 333.516 242.122 C 332.132 239.164 331.020 236.464 331.044 236.122 C 331.121 235.040 334.718 242.389 335.389 245.000 M 261.080 163.070 C 258.099 164.128 255.484 164.817 255.268 164.601 C 254.759 164.093 263.036 161.160 265.000 161.152 C 265.825 161.149 264.061 162.012 261.080 163.070 "/></g>
<g fill="#212121FF" stroke="#212121FF">
<path d="M 216.190 423.750 C 216.439 426.761 216.943 427.563 218.748 427.819 C 220.411 428.055 221.258 427.451 222.000 425.500 C 223.181 422.394 221.445 420.000 218.011 420.000 C 216.159 420.000 215.920 420.492 216.190 423.750 "/></g>
<g fill="#212121FF" stroke="#212121FF">
<path d="M 380.390 217.427 C 379.187 220.560 380.445 223.494 383.122 223.804 C 386.464 224.192 387.607 221.575 385.500 218.359 C 383.771 215.721 381.223 215.256 380.390 217.427 "/></g>
<g fill="#212121FF" stroke="#212121FF">
<path d="M 114.084 325.916 C 111.234 328.766 112.384 331.181 116.373 330.726 C 119.080 330.417 119.500 329.977 119.500 327.448 C 119.500 323.796 116.931 323.069 114.084 325.916 "/></g>
<g fill="#212121FF" stroke="#212121FF">
<path d="M 354.667 105.667 C 353.391 106.942 354.010 111.067 355.567 111.664 C 357.856 112.542 359.350 110.531 358.608 107.573 C 357.994 105.129 356.114 104.219 354.667 105.667 "/></g>
<g fill="#212121FF" stroke="#212121FF">
<path d="M 159.975 485.047 C 158.606 487.605 159.850 489.368 162.644 488.830 C 163.855 488.597 164.500 487.614 164.500 486.000 C 164.500 482.785 161.521 482.158 159.975 485.047 "/></g>
<g fill="#212121FF" stroke="#212121FF">
<path d="M 383.394 137.417 C 382.540 139.642 383.641 142.000 385.535 142.000 C 386.679 142.000 387.043 141.241 386.816 139.327 C 386.454 136.266 384.297 135.062 383.394 137.417 "/></g>
<g fill="#212121FF" stroke="#212121FF">
<path d="M 158.667 380.667 C 157.321 382.012 158.053 384.000 159.893 384.000 C 161.792 384.000 163.384 381.717 162.264 380.598 C 161.467 379.800 159.495 379.838 158.667 380.667 "/></g>
<g fill="#212121FF" stroke="#212121FF">
<path d="M 446.336 206.567 C 445.502 208.739 447.618 210.782 449.133 209.267 C 450.413 207.987 449.620 205.000 448.000 205.000 C 447.415 205.000 446.667 205.705 446.336 206.567 "/></g>
<g fill="#212121FF" stroke="#212121FF">
<path d="M 96.446 331.087 C 95.573 332.499 97.501 334.427 98.913 333.554 C 100.499 332.574 100.243 330.000 98.559 330.000 C 97.766 330.000 96.816 330.489 96.446 331.087 "/></g>
<g fill="#212121FF" stroke="#212121FF">
<path d="M 264.446 324.087 C 263.416 325.755 265.733 327.667 267.113 326.287 C 268.267 325.133 267.545 323.000 266.000 323.000 C 265.515 323.000 264.816 323.489 264.446 324.087 "/></g>
<g fill="#212121FF" stroke="#212121FF">
<path d="M 410.404 134.389 C 409.752 136.088 410.629 138.000 412.059 138.000 C 413.320 138.000 413.266 134.282 411.993 133.496 C 411.439 133.153 410.724 133.555 410.404 134.389 "/></g>
<g fill="#212121FF" stroke="#212121FF">
<path d="M 421.639 160.694 C 420.444 161.889 420.994 164.000 422.500 164.000 C 423.325 164.000 424.000 163.352 424.000 162.559 C 424.000 160.888 422.573 159.761 421.639 160.694 "/></g>
<g fill="#212121FF" stroke="#212121FF">
<path d="M 330.639 96.694 C 329.444 97.889 329.994 100.000 331.500 100.000 C 332.325 100.000 333.000 99.352 333.000 98.559 C 333.000 96.888 331.573 95.761 330.639 96.694 "/></g>
</svg>
